<svg width="20" height="20" viewBox="0 0 20 20" fill="none" xmlns="http://www.w3.org/2000/svg">
<path d="M3.19611 3.33317H6.93773L8.14374 6.3482L6.20634 7.6398C5.97451 7.79435 5.83526 8.05454 5.83526 8.33317C5.83738 8.4112 5.83526 8.334 5.83526 8.334L5.83526 8.33488L5.83527 8.33674L5.83529 8.34095L5.83542 8.35123C5.83554 8.35891 5.83575 8.36824 5.8361 8.37916C5.83681 8.40101 5.83808 8.42925 5.84036 8.46347C5.84492 8.53189 5.85352 8.62437 5.86968 8.73748C5.90198 8.96356 5.96466 9.27326 6.08636 9.63836C6.33072 10.3714 6.81087 11.3206 7.74601 12.2558C8.68114 13.1909 9.63032 13.671 10.3634 13.9154C10.7285 14.0371 11.0382 14.0998 11.2643 14.1321C11.3774 14.1482 11.4699 14.1568 11.5383 14.1614C11.5725 14.1637 11.6008 14.165 11.6226 14.1657C11.6335 14.166 11.6429 14.1662 11.6505 14.1663L11.6608 14.1665L11.665 14.1665L11.6669 14.1665L11.6678 14.1665C11.6678 14.1665 11.7608 14.1614 11.6686 14.1665C11.9842 14.1665 12.2728 13.9882 12.4139 13.7058L12.972 12.5897L16.6686 13.2058V16.8057C14.9093 17.0601 10.1581 17.3108 6.42452 13.5772C2.69093 9.84367 2.94169 5.09242 3.19611 3.33317ZM7.5633 8.73824L9.06824 7.73495C9.72402 7.29776 9.98391 6.46098 9.69121 5.72921L8.48519 2.71419C8.23209 2.08142 7.61924 1.6665 6.93773 1.6665H3.15257C2.39548 1.6665 1.68283 2.19247 1.55855 3.01392C1.27579 4.88276 0.890916 10.4007 5.24601 14.7558C9.6011 19.1108 15.119 18.726 16.9878 18.4432C17.8093 18.3189 18.3353 17.6063 18.3353 16.8492V13.2058C18.3353 12.391 17.7462 11.6957 16.9426 11.5618L13.246 10.9457C12.5243 10.8254 11.8085 11.1899 11.4813 11.8443L11.1926 12.4218C11.1018 12.3995 11.0005 12.371 10.8905 12.3343C10.3735 12.162 9.65605 11.8088 8.92452 11.0772C8.19299 10.3457 7.8398 9.62823 7.6675 9.11131C7.62094 8.97163 7.58742 8.84604 7.5633 8.73824Z" fill="white"/>
</svg>
